<svg width="640" height="800" viewBox="0 0 640 800" fill="none" xmlns="http://www.w3.org/2000/svg">
  <rect width="640" height="800" fill="#0C1109"/>
  <rect width="640" height="800" fill="url(#paint0_linear)"/>
  <rect x="38" y="52" width="564" height="696" rx="28" fill="url(#paint1_linear)" fill-opacity="0.45" stroke="rgba(255,255,255,0.22)"/>
  <rect x="74" y="122" width="186" height="366" rx="18" fill="#647D45" fill-opacity="0.46"/>
  <rect x="294" y="138" width="238" height="308" rx="18" fill="#8CA466" fill-opacity="0.28"/>
  <path d="M0 562C118 512 198 446 302 334C388 242 470 190 640 184V800H0V562Z" fill="url(#paint2_linear)" fill-opacity="0.9"/>
  <path d="M104 274L512 132" stroke="#FDE68A" stroke-opacity="0.48" stroke-width="16" stroke-linecap="round"/>
  <path d="M90 310L500 164" stroke="#FDE68A" stroke-opacity="0.24" stroke-width="12" stroke-linecap="round"/>
  <text x="72" y="664" fill="#F1F5D9" font-family="Outfit, Arial, sans-serif" font-size="74" font-weight="700" letter-spacing="4">ANCIENT</text>
  <text x="76" y="713" fill="#D9F99D" font-family="Inter, Arial, sans-serif" font-size="22" font-weight="600" letter-spacing="6">JUNGLE RUINS</text>
  <defs>
    <linearGradient id="paint0_linear" x1="320" y1="0" x2="320" y2="800" gradientUnits="userSpaceOnUse">
      <stop stop-color="#B7C685"/>
      <stop offset="0.4" stop-color="#51633C"/>
      <stop offset="1" stop-color="#09120C"/>
    </linearGradient>
    <linearGradient id="paint1_linear" x1="90" y1="78" x2="550" y2="736" gradientUnits="userSpaceOnUse">
      <stop stop-color="white" stop-opacity="0.24"/>
      <stop offset="1" stop-color="white" stop-opacity="0.04"/>
    </linearGradient>
    <linearGradient id="paint2_linear" x1="320" y1="250" x2="320" y2="800" gradientUnits="userSpaceOnUse">
      <stop stop-color="#7BA75A"/>
      <stop offset="1" stop-color="#0A1B11"/>
    </linearGradient>
  </defs>
</svg>
