<svg width="640" height="800" viewBox="0 0 640 800" fill="none" xmlns="http://www.w3.org/2000/svg">
  <rect width="640" height="800" fill="#120F0A"/>
  <rect width="640" height="800" fill="url(#paint0_linear)"/>
  <rect x="40" y="52" width="560" height="696" rx="28" fill="url(#paint1_linear)" fill-opacity="0.45" stroke="rgba(255,255,255,0.22)"/>
  <path d="M90 588C180 522 260 470 366 408C426 374 484 326 540 250V748H90V588Z" fill="url(#paint2_linear)" fill-opacity="0.85"/>
  <path d="M108 518L226 432L292 468L174 552L108 518Z" fill="#7DD3FC" fill-opacity="0.35"/>
  <path d="M174 552L292 468V620L174 682V552Z" fill="#38BDF8" fill-opacity="0.22"/>
  <rect x="126" y="138" width="112" height="218" rx="14" fill="#E7C58E" fill-opacity="0.7"/>
  <rect x="264" y="100" width="242" height="284" rx="16" fill="#D2A46D" fill-opacity="0.55"/>
  <rect x="154" y="170" width="58" height="92" rx="8" fill="#B07E4D" fill-opacity="0.72"/>
  <text x="74" y="664" fill="#FFF5E1" font-family="Outfit, Arial, sans-serif" font-size="74" font-weight="700" letter-spacing="4">ANUBIS</text>
  <text x="78" y="713" fill="#FDE68A" font-family="Inter, Arial, sans-serif" font-size="22" font-weight="600" letter-spacing="6">TEMPLE WATERWAYS</text>
  <defs>
    <linearGradient id="paint0_linear" x1="320" y1="0" x2="320" y2="800" gradientUnits="userSpaceOnUse">
      <stop stop-color="#F5D7A5"/>
      <stop offset="0.52" stop-color="#A87A4F"/>
      <stop offset="1" stop-color="#0B1220"/>
    </linearGradient>
    <linearGradient id="paint1_linear" x1="84" y1="86" x2="556" y2="724" gradientUnits="userSpaceOnUse">
      <stop stop-color="white" stop-opacity="0.26"/>
      <stop offset="1" stop-color="white" stop-opacity="0.04"/>
    </linearGradient>
    <linearGradient id="paint2_linear" x1="315" y1="378" x2="315" y2="748" gradientUnits="userSpaceOnUse">
      <stop stop-color="#7DD3FC"/>
      <stop offset="1" stop-color="#082F49"/>
    </linearGradient>
  </defs>
</svg>
