<svg width="640" height="800" viewBox="0 0 640 800" fill="none" xmlns="http://www.w3.org/2000/svg">
  <rect width="640" height="800" fill="#120C0A"/>
  <rect width="640" height="800" fill="url(#paint0_linear)"/>
  <rect x="40" y="52" width="560" height="696" rx="28" fill="url(#paint1_linear)" fill-opacity="0.44" stroke="rgba(255,255,255,0.22)"/>
  <path d="M0 514C118 470 192 438 278 402C388 356 482 276 640 198V800H0V514Z" fill="url(#paint2_linear)" fill-opacity="0.92"/>
  <rect x="82" y="154" width="146" height="268" rx="16" fill="#6E3C2C" fill-opacity="0.42"/>
  <rect x="246" y="132" width="314" height="292" rx="18" fill="#C07E46" fill-opacity="0.36"/>
  <path d="M96 116H542" stroke="#FDE68A" stroke-opacity="0.46" stroke-width="18" stroke-linecap="round"/>
  <path d="M94 116L194 214" stroke="#FDE68A" stroke-opacity="0.28" stroke-width="10" stroke-linecap="round"/>
  <text x="72" y="664" fill="#FFF0E0" font-family="Outfit, Arial, sans-serif" font-size="74" font-weight="700" letter-spacing="4">INFERNO</text>
  <text x="76" y="713" fill="#FDBA74" font-family="Inter, Arial, sans-serif" font-size="22" font-weight="600" letter-spacing="6">SUNLIT ALLEYS</text>
  <defs>
    <linearGradient id="paint0_linear" x1="320" y1="0" x2="320" y2="800" gradientUnits="userSpaceOnUse">
      <stop stop-color="#EBC0A2"/>
      <stop offset="0.46" stop-color="#9B543B"/>
      <stop offset="1" stop-color="#120A09"/>
    </linearGradient>
    <linearGradient id="paint1_linear" x1="82" y1="78" x2="556" y2="736" gradientUnits="userSpaceOnUse">
      <stop stop-color="white" stop-opacity="0.24"/>
      <stop offset="1" stop-color="white" stop-opacity="0.04"/>
    </linearGradient>
    <linearGradient id="paint2_linear" x1="320" y1="260" x2="320" y2="800" gradientUnits="userSpaceOnUse">
      <stop stop-color="#FB923C"/>
      <stop offset="1" stop-color="#1C1917"/>
    </linearGradient>
  </defs>
</svg>
