<svg width="640" height="800" viewBox="0 0 640 800" fill="none" xmlns="http://www.w3.org/2000/svg">
  <rect width="640" height="800" fill="#17120C"/>
  <rect width="640" height="800" fill="url(#paint0_linear)"/>
  <rect x="40" y="52" width="560" height="696" rx="28" fill="url(#paint1_linear)" fill-opacity="0.44" stroke="rgba(255,255,255,0.22)"/>
  <rect x="102" y="156" width="164" height="292" rx="18" fill="#B9906A" fill-opacity="0.38"/>
  <rect x="298" y="124" width="232" height="286" rx="18" fill="#E8C9AA" fill-opacity="0.3"/>
  <path d="M0 560C132 506 240 450 380 362C468 306 542 234 640 184V800H0V560Z" fill="url(#paint2_linear)" fill-opacity="0.9"/>
  <path d="M420 468C420 442.595 440.595 422 466 422H530V524H466C440.595 524 420 503.405 420 478V468Z" fill="#14B8A6" fill-opacity="0.28"/>
  <text x="72" y="664" fill="#FFF4E6" font-family="Outfit, Arial, sans-serif" font-size="74" font-weight="700" letter-spacing="4">MIRAGE</text>
  <text x="76" y="713" fill="#FCD34D" font-family="Inter, Arial, sans-serif" font-size="22" font-weight="600" letter-spacing="6">ROOFTOP CROSSROADS</text>
  <defs>
    <linearGradient id="paint0_linear" x1="320" y1="0" x2="320" y2="800" gradientUnits="userSpaceOnUse">
      <stop stop-color="#EBD9BE"/>
      <stop offset="0.46" stop-color="#BC8D55"/>
      <stop offset="1" stop-color="#111827"/>
    </linearGradient>
    <linearGradient id="paint1_linear" x1="82" y1="78" x2="556" y2="736" gradientUnits="userSpaceOnUse">
      <stop stop-color="white" stop-opacity="0.24"/>
      <stop offset="1" stop-color="white" stop-opacity="0.04"/>
    </linearGradient>
    <linearGradient id="paint2_linear" x1="320" y1="280" x2="320" y2="800" gradientUnits="userSpaceOnUse">
      <stop stop-color="#FBBF24"/>
      <stop offset="1" stop-color="#0F172A"/>
    </linearGradient>
  </defs>
</svg>
