<svg width="640" height="800" viewBox="0 0 640 800" fill="none" xmlns="http://www.w3.org/2000/svg">
  <rect width="640" height="800" fill="#0D110F"/>
  <rect width="640" height="800" fill="url(#paint0_linear)"/>
  <rect x="40" y="52" width="560" height="696" rx="28" fill="url(#paint1_linear)" fill-opacity="0.44" stroke="rgba(255,255,255,0.22)"/>
  <path d="M0 584C132 516 226 464 332 388C432 318 516 252 640 196V800H0V584Z" fill="url(#paint2_linear)" fill-opacity="0.92"/>
  <rect x="120" y="188" width="356" height="178" rx="20" fill="#3F4A41" fill-opacity="0.36"/>
  <path d="M60 210H580" stroke="#111827" stroke-width="42" stroke-linecap="round"/>
  <path d="M132 254H508" stroke="#9CA3AF" stroke-opacity="0.46" stroke-width="8" stroke-dasharray="8 10"/>
  <rect x="184" y="430" width="224" height="152" rx="18" fill="#7C8C65" fill-opacity="0.22"/>
  <text x="72" y="664" fill="#F0FDF4" font-family="Outfit, Arial, sans-serif" font-size="74" font-weight="700" letter-spacing="4">OVERPASS</text>
  <text x="76" y="713" fill="#86EFAC" font-family="Inter, Arial, sans-serif" font-size="22" font-weight="600" letter-spacing="6">UNDERPASS JUNCTION</text>
  <defs>
    <linearGradient id="paint0_linear" x1="320" y1="0" x2="320" y2="800" gradientUnits="userSpaceOnUse">
      <stop stop-color="#90B399"/>
      <stop offset="0.46" stop-color="#42534A"/>
      <stop offset="1" stop-color="#020617"/>
    </linearGradient>
    <linearGradient id="paint1_linear" x1="82" y1="78" x2="556" y2="736" gradientUnits="userSpaceOnUse">
      <stop stop-color="white" stop-opacity="0.24"/>
      <stop offset="1" stop-color="white" stop-opacity="0.04"/>
    </linearGradient>
    <linearGradient id="paint2_linear" x1="320" y1="280" x2="320" y2="800" gradientUnits="userSpaceOnUse">
      <stop stop-color="#A3E635"/>
      <stop offset="1" stop-color="#111827"/>
    </linearGradient>
  </defs>
</svg>
